<?xml version="1.0" encoding="utf-8"?>
<!-- Generator: Adobe Illustrator 25.0.0, SVG Export Plug-In . SVG Version: 6.00 Build 0)  -->
<svg version="1.1" xmlns="http://www.w3.org/2000/svg" xmlns:xlink="http://www.w3.org/1999/xlink" x="0px" y="0px"
	 viewBox="0 0 16 16" style="enable-background:new 0 0 16 16;" xml:space="preserve">
<style type="text/css">
	.st0{display:none;}
	.st1{display:inline;fill:#0C1222;stroke:#0C1222;stroke-width:0.1;stroke-miterlimit:10;}
	.st2{fill:#FF6382;stroke:#0C1222;stroke-width:0.5;stroke-miterlimit:10;}
	.st3{fill:#5BCBF0;stroke:#0C1222;stroke-width:0.5;stroke-miterlimit:10;}
	.st4{fill:#FE9166;stroke:#0C1222;stroke-width:0.5;stroke-miterlimit:10;}
	.st5{fill:#7437D3;stroke:#0C1222;stroke-width:0.5;stroke-miterlimit:10;}
	.st6{fill:#50DB88;stroke:#0C1222;stroke-width:0.5;stroke-miterlimit:10;}
	.st7{fill:#F8CD5C;stroke:#0C1222;stroke-width:0.5;stroke-miterlimit:10;}
</style>
<g id="Layer_3" class="st0">
	<rect x="-10.07" y="-2.85" class="st1" width="32.09" height="21.65"/>
</g>
<g id="Layer_2">
	<path class="st2" d="M13.01,6.87L13.01,6.87c1.39-0.49,2.11-2.02,1.61-3.4l0,0c-0.49-1.39-2.02-2.11-3.4-1.61l0,0
		C9.83,2.35,9.11,3.87,9.6,5.26l0,0C10.1,6.64,11.62,7.36,13.01,6.87z"/>
	<rect x="4.43" y="3.49" transform="matrix(0.9417 -0.3365 0.3365 0.9417 -1.657 2.7458)" class="st3" width="5.33" height="5.33"/>
	<path class="st4" d="M0.47,11.35l5.02-1.79L3.69,4.54l0,0C0.92,5.53-0.52,8.58,0.47,11.35L0.47,11.35z"/>
	
		<rect x="6.22" y="8.51" transform="matrix(0.9417 -0.3365 0.3365 0.9417 -3.2403 3.6414)" class="st5" width="5.33" height="5.33"/>
	<path class="st6" d="M4.77,15.47L4.77,15.47c1.39-0.49,2.11-2.02,1.61-3.4l0,0c-0.49-1.39-2.02-2.11-3.4-1.61l0,0
		c-1.39,0.49-2.11,2.02-1.61,3.4l0,0C1.86,15.24,3.38,15.97,4.77,15.47z"/>
	<path class="st7" d="M12.29,12.78L12.29,12.78c2.77-0.99,4.21-4.04,3.22-6.81l0,0L10.5,7.77L12.29,12.78z"/>
</g>
</svg>
